<?xml version="1.0" encoding="UTF-8"?>
<svg id="Layer_2" data-name="Layer 2" xmlns="http://www.w3.org/2000/svg" viewBox="0 0 173 187.35">
  <defs>
    <style>
      .cls-1 {
        fill: #fff;
      }
    </style>
  </defs>
  <g id="Layer_1-2" data-name="Layer 1">
    <path id="Left_Tree" data-name="Left Tree" class="cls-1" d="M0,47.12c5.67-6.24,12.61-11.49,20.51-14.54,5.48-2.14,11.39-3.2,17.27-3.12,10.46.06,20.68,3.72,29.21,9.68,2.58,1.65,4.84,3.72,7.26,5.59-2.67-5-6.18-9.5-9.73-13.88,3.37.11,6.74.05,10.11-.12-3.75-1.35-7.73-1.74-11.55-2.76-1.34-.26-2.1-1.49-2.97-2.4-2.45-2.99-5.27-5.65-7.62-8.71,4.19-2.34,9.09-2.17,13.71-2.82-4.52-.96-9.19-1-13.68-2.13-2.14-.51-4.29-.92-6.45-1.24-3.38-3.31-6.71-6.68-9.97-10.1,9.39-1.48,19.13.02,27.75,3.97,5.77,2.65,10.88,6.66,14.99,11.48,5.93,6.97,9.33,15.79,11.12,24.69,3.2-8.31,8.84-15.61,16.04-20.84,7.62-5.43,16.7-8.77,26.01-9.63,9.35-.9,18.87,1.66,26.79,6.65-4.81,1.5-9.54,3.26-14.2,5.2-1.26.48-2.62,1.18-3.99.67-5.98-1.66-12.1-2.92-18.27-3.64,5.18,1.84,10.28,3.86,15.36,5.98-3.83,1.94-7.59,4-11.3,6.14-1.47.78-2.84,2.17-4.63,1.93-4.49-.23-8.99-.54-13.49-.42,3.46,1.35,7.12,2.1,10.62,3.36-5.16,3.64-10.08,7.62-14.54,12.11,7.91-3,16.33-4.99,24.83-4.7,10.12.29,19.99,4.32,27.7,10.84,7.58,6.28,13.01,14.92,16.1,24.22-4.75-2.08-9.36-4.54-14.28-6.21-.82-.35-1.82-.58-2.22-1.46-2.75-4.98-6.14-9.58-9.75-13.97,1.75,4.47,3.91,8.79,5.74,13.23-5.49-1.62-11.01-3.18-16.63-4.24-1.32-.18-2.12-1.3-2.96-2.2-3.35-3.73-7.22-7.03-11.47-9.71,2.87,3.56,5.65,7.18,8.26,10.94-8.81-1.08-17.72-.73-26.55-.02,11.49,3.2,21.94,10.5,28.27,20.69,3.76,5.75,6.04,12.3,7.1,19.05.65,2.95,1.09,5.94,1.27,8.94.37,6.32-.73,12.63-2.37,18.72-1.73-2.93-10.55-17.37-10.55-17.37-.61-5.54,1.91-10.74,2.05-16.23-1.74,3.27-2.94,6.78-4.72,10.04-2.33-3.54-4.4-7.25-6.88-10.69-.65-1.01-1.58-1.95-1.65-3.21-.52-5.14-1.47-10.24-2.59-15.28-.61,3.97-.73,8.02-1.02,12.03-7.35-7.51-15.42-14.37-24.45-19.78-4.05,4.42-6.69,9.93-9.17,15.33-3.37,7.44-5.6,15.33-7.25,23.32-4.15,19.56-3.31,48.97,5.71,70.35l-5.42,6.55-16.18-4.66c-.39-2.24-.79-4.48-1.19-6.72-1.86-11.92-2.61-24.09-1.38-36.12,1.89-20.24,8.48-39.98,18.96-57.37,2.28-3.9,4.69-7.71,7.37-11.34-6.59,1.8-12.74,4.85-18.79,7.98-3.54,1.89-7.04,3.86-10.38,6.08.37-4.3,1.18-8.53,1.9-12.77-2.35,4.76-4.6,9.6-6.2,14.67-.36,1.41-1.55,2.32-2.63,3.18-3.77,2.89-7.21,6.16-10.71,9.36-1.03-3.83-1.57-7.75-2.19-11.65-1.07,4.84-.77,9.82-.98,14.73-.49.91-1.32,1.59-2.03,2.33-3.92,3.83-7.33,8.13-10.98,12.21-.42-6.29-.26-12.69,1.33-18.82,2.9-11.06,9.07-21.49,18.37-28.35,9.27-7.13,21.12-9.6,32.57-10.11-8.08-3.62-16.64-6.08-25.27-7.97,3.78-2.68,7.87-4.85,11.87-7.17-4.66,1.17-9.26,2.57-13.78,4.18-1.83.57-3.55,1.9-5.55,1.53-4.85-.59-9.69-1.34-14.54-1.93,2.04-2.7,4.13-5.37,6.42-7.85.83-.9,1.68-1.78,2.48-2.71-4.7,2.13-8.71,5.44-12.59,8.77-.65.51-1.27,1.27-2.19,1.1-5.07-.11-10.12-.69-15.19-.81"/>
  </g>
</svg>