<?xml version="1.0" encoding="UTF-8"?>
<svg id="Layer_2" data-name="Layer 2" xmlns="http://www.w3.org/2000/svg" viewBox="0 0 112.02 130.03">
  <defs>
    <style>
      .cls-1 {
        fill: #fff;
      }
    </style>
  </defs>
  <g id="Layer_1-2" data-name="Layer 1">
    <path id="Right_Tree" data-name="Right Tree" class="cls-1" d="M13.23,30.88c-3.44-1.13-7.02-1.69-10.54-2.52,5.61-3.89,12.24-6.41,19.08-6.74,7.01-.4,14.18,1.49,19.93,5.56,4.85,3.39,8.7,8.02,11.84,13-.6-4.35-1.67-8.63-3.02-12.81,2.47.76,4.82,1.88,7.31,2.58-2.45-1.95-5.08-3.66-7.67-5.41-1.1-.62-1.28-1.96-1.77-3.01-1.16-2.75-2.4-5.47-3.71-8.14,3.7.94,7.39,1.96,11.04,3.1-3.73-2.18-7.66-4.03-11.68-5.61-.98-.29-1.43-1.25-1.94-2.04-1.77-3.03-3.67-5.98-5.71-8.83,6.48.54,12.85,3.1,17.67,7.51,4.82,4.37,8.47,10.03,10.44,16.23,1.82,5.92,1.9,12.34.2,18.29,4.72-4.19,10.29-7.68,16.51-9.07,4.3-.97,8.82-1.06,13.14-.12,6.44,1.42,12.49,4.66,17.09,9.4-3.25.54-6.51,1.02-9.77,1.44-1.34-.73-2.7-1.4-4.1-2.01-2.97-1.25-5.58-3.17-8.49-4.53,2.3,2.29,5.09,4.25,6.44,7.3-2.59.72-5.27,1.02-7.88,1.65-.87.15-1.8.51-2.66.1-2.55-1.03-4.93-2.48-7.58-3.3,1.81,1.5,3.65,2.95,5.57,4.29-3.81.95-7.65,1.99-11.22,3.64,2.13-.02,4.25-.23,6.37-.07,7.24.26,14.45,2.5,20.29,6.84,3.31,2.41,6.14,5.47,8.3,8.96,3.12,5,4.78,10.82,5.32,16.66-2.87-2.05-5.92-3.84-8.78-5.9-.58-.29-.61-.98-.75-1.53-.76-3.47-1.61-6.99-3.33-10.14.05.85.16,1.7.24,2.54.24,2.34.28,4.7.29,7.05-2.94-1.7-5.95-3.31-8.89-5.01-1.27-.63-1.67-2.08-2.45-3.17-1.84-2.79-3.81-5.49-5.91-8.09,1.25,2.96,2.62,5.88,3.6,8.95-5.59-2.56-11.38-4.77-17.38-6.14,6.16,5.07,11.7,11.4,13.88,19.24,2.3,7.7,1.37,16.08-1.65,23.44-1.67,4.08-4.26,7.7-7.13,11.02-.32-3.8-.42-7.61-.99-11.38-.08-.71-.26-1.43-.15-2.14,1.94-2.81,4.19-5.46,5.62-8.6-1.98,1.91-3.92,3.86-6.1,5.56-.61-3.24-1.16-6.5-2.04-9.68-.24-.93-.52-1.93-.13-2.87,1.23-3.49,2.01-7.12,2.69-10.74-1.38,2.66-2.69,5.35-4.29,7.89-.93-2.63-2.05-5.19-3.23-7.72-2.05-4.27-4.2-8.54-7.11-12.29-.17-.23-.33-.34-.49-.51-1.62,1.73-3.14,3.55-4.56,5.44-3.38,4.57-6.06,9.6-8.36,14.78-5.69,12.69-8.53,26.64-8.27,40.55h0s-13.14,6.24-13.14,6.24c.07-1.58.12-3.16.18-4.74.49-8.38,1.77-16.77,4.37-24.77,4.26-13.48,11.64-25.94,21.32-36.23,1.25-1.36,2.6-2.62,3.93-3.9,0-.03,0-.04-.01-.07-7.29-.77-14.64-.33-21.86.77,1.51-2.35,3.14-4.65,4.46-7.11-2.73,2.34-5.39,4.77-7.83,7.41-.57.67-1.47.81-2.26,1.09-2.82.87-5.52,2.07-8.3,3.07.37-2.55,1.17-5.01,1.58-7.55-2.22,3.11-3,7.06-5.65,9.88,0,0-10.94,4.34-13.12,5.24,1.64-4.07,3.66-8.03,6.51-11.4,1.35-1.59,2.85-3.07,4.44-4.44,3.42-3.31,7.42-5.99,11.92-7.62,7.78-3.02,16.64-2.7,24.37.32-4.61-4.09-9.41-8.01-14.77-11.09,3.02-1,6.08-1.84,9.17-2.63-3.48-.29-7.01-.07-10.44.6-.84.15-1.76.44-2.57-.02-3.57-1.76-7.29-3.2-11.02-4.59,2.88-1.71,5.88-3.2,8.73-4.96-3.84.93-7.65,2.07-11.26,3.69-.59.32-1.24.03-1.84-.12"/>
  </g>
</svg>