<?xml version="1.0" encoding="UTF-8"?>
<svg id="Layer_2" data-name="Layer 2" xmlns="http://www.w3.org/2000/svg" xmlns:xlink="http://www.w3.org/1999/xlink" viewBox="0 0 167 62.37">
  <defs>
    <style>
      .cls-1 {
        fill: none;
      }

      .cls-2 {
        fill: #5661ac;
      }

      .cls-3 {
        fill: #636bb2;
      }

      .cls-4 {
        clip-path: url(#clippath-1);
      }

      .cls-5 {
        clip-path: url(#clippath);
      }
    </style>
    <clipPath id="clippath">
      <path class="cls-1" d="M129,0s-30,5-30,6v31c0,1,10-1,10-1,0,0,4,10,5,12s6-10,10-11,7,4,7,5v18c0,6.33,8-2,8-2l28-33L129,0Z"/>
    </clipPath>
    <clipPath id="clippath-1">
      <path class="cls-1" d="M5.33,27.41l-1.49,2.36-3.84,10.02s1.13,9.98,1.34,10.96c.21.98,5.05,5.06,6.21,5.84,1.16.78,1.37,1.75,5.38,1.92,4.02.17,9.73-1.05,9.73-1.05,0,0,13.98-9.11,14.73-10.29.74-1.18-4.4-11.33-4.61-12.31s-1.25-5.87-1.25-5.87l-7.82.64s-4.55,1.99-9.19-1.11c-2.03-1.36-4.05-1.74-5.67-1.74-2.08,0-3.52.63-3.52.63"/>
    </clipPath>
  </defs>
  <g id="Layer_1-2" data-name="Layer 1">
    <g class="cls-5">
      <path class="cls-2" d="M120.91,38.96c-.08-1.12-.11-2.26-.28-3.37-.32,1.41-.59,2.84-.74,4.28-.02.35-.28.62-.46.9-.7.96-1.28,2-1.94,3-.5-.91-.83-1.9-1.32-2.82.04,1.54.74,3,.57,4.55.78-1.22,1.77-2.31,3.03-3.04,1.59-.91,3.44-1.44,5.29-1.26,1.5.12,2.92.77,4.14,1.63-.9.21-1.76.57-2.66.82-1.17-.14-2.26-.68-3.44-.8.85.37,1.68.76,2.51,1.18-1.08.43-2.07,1.05-3.15,1.49-1.05-.18-2.14-.15-3.21-.12.79.26,1.6.42,2.39.69-1.12.8-2.2,1.67-3.13,2.68,2.58-.84,5.53-.96,7.97.36,2.45,1.24,4.17,3.72,4.61,6.42-.99-.52-2-1-3-1.5-.35-1.02-.63-2.08-1.2-3.02.2.89.38,1.78.45,2.69-.91-.44-1.85-.79-2.8-1.12-.4-.11-.6-.51-.86-.8-.5-.57-.98-1.17-1.54-1.69.28.69.69,1.32.97,2.01-1.88-.42-3.79-.84-5.73-.78,1.9,1.63,3.56,3.55,4.79,5.74,1.04,1.76,1.76,3.68,2.3,5.65.34,1.23.55,2.5.7,3.76,1.69-.46,3.4-.86,5.14-1.1.21-.06.56,0,.62-.28.3-.78.51-1.59.75-2.39,1.73-5.97,1.96-12.35.68-18.43-.46-2.24-1.08-4.45-2.02-6.54-.69-1.52-1.43-3.06-2.56-4.31-2.54,1.51-4.81,3.43-6.87,5.53M142.38,27.5c-.56.1-1.04-.27-1.55-.43-1.27-.45-2.56-.85-3.86-1.18,1.12.65,2.27,1.26,3.33,2.02-2.42.53-4.83,1.21-7.1,2.22,3.21.15,6.53.85,9.13,2.86,2.6,1.93,4.33,4.86,5.13,7.96.44,1.72.48,3.52.36,5.28-1.02-1.15-1.97-2.36-3.07-3.43-.2-.21-.43-.4-.57-.65-.05-1.38.03-2.78-.26-4.13-.18,1.09-.33,2.19-.62,3.27-.98-.9-1.95-1.82-3-2.63-.3-.24-.64-.5-.74-.89-.45-1.42-1.07-2.78-1.73-4.12.2,1.19.42,2.38.52,3.59-.93-.63-1.92-1.18-2.91-1.71-1.69-.88-3.42-1.74-5.27-2.25.75,1.02,1.42,2.09,2.06,3.19,2.93,4.89,4.76,10.43,5.28,16.11.34,3.38.12,6.79-.41,10.13-.11.63-.23,1.26-.34,1.88,5.65-.38,11.37-.1,16.93,1.05.82.18,1.65.32,2.42.66-.38,1.85-.84,3.69-1.46,5.47-.85,2.47-1.81,4.92-3.11,7.19-.28.44-.48,1.19-1.14,1.06-16.45,0-32.91.01-49.36,0,.99-1.15,2.19-2.1,3.34-3.09,4.55-3.7,9.78-6.48,15.21-8.62.59-.23,1.21-.4,1.78-.68.11-.15.08-.36.11-.54.24-3.47-.32-7.04-1.86-10.17-.9-1.91-2.14-3.66-3.71-5.07-1.29,1.55-2.19,3.4-2.85,5.3-.42-.62-.83-1.25-1.27-1.86.18.82.45,1.63.71,2.43.1.27.13.56.05.85-.27,1.14-.59,2.27-.77,3.43-.51-.62-1.03-1.23-1.59-1.81.33.89.83,1.71,1.26,2.56.14.21.08.46.04.69-.2,1.12-.41,2.24-.52,3.38-1.35-2.19-2.37-4.68-2.32-7.29-.05-3.06,1.45-6.1,3.95-7.86-1.7.32-3.33.92-4.92,1.61.15-.81.31-1.62.52-2.41-.58.79-.97,1.69-1.36,2.57-.12.31-.41.49-.67.68-.86.58-1.69,1.2-2.46,1.89,0-.86-.03-1.73-.12-2.59-.37,1.02-.39,2.12-.51,3.19-.86.75-1.68,1.54-2.49,2.35-.22-2.62.56-5.35,2.37-7.29,2.07-2.3,5.3-3.18,8.31-3.03-1.18-.47-2.36-.97-3.6-1.25.71-.43,1.4-.89,2.02-1.44-.96.31-1.86.79-2.77,1.22-.24.13-.52.05-.78.02-.97-.17-1.95-.32-2.93-.45.73-.64,1.53-1.21,2.25-1.86-.9.32-1.71.82-2.48,1.38-.27.18-.55.44-.9.38-1.03-.05-2.06-.14-3.09-.17,1.64-1.62,3.77-2.81,6.09-3.05,3.02-.37,6.23.74,8.23,3.06-.23-3.18.4-6.48,2.17-9.16,1.78-2.86,4.72-4.9,7.94-5.79-2.48-.2-4.97-.31-7.45-.01.73-1.05,1.52-2.07,2.32-3.06-1.19.75-2.28,1.67-3.22,2.72-.24.25-.46.57-.83.62-1.58.3-3.13.73-4.67,1.18.52-1.25,1.12-2.45,1.62-3.71-1.01,1.23-1.97,2.52-2.74,3.91-.11.25-.39.31-.62.41-1.38.47-2.68,1.15-4.01,1.74.87-2.61,2.4-5.03,4.53-6.79,2.17-1.82,4.94-2.95,7.78-3.02,2.39-.08,4.75.49,6.96,1.33-1.25-1.26-2.62-2.38-4.07-3.41.98-.35,2.01-.56,2.98-.93-1.26-.04-2.52.05-3.78.11-.5.07-.89-.32-1.3-.54-1.04-.6-2.1-1.19-3.17-1.73,1.42-.59,2.86-1.16,4.31-1.67-1.73.2-3.45.55-5.13,1.01-.39.14-.76-.06-1.12-.19-1.3-.55-2.63-1.05-3.98-1.47,2.23-1.39,4.9-2.1,7.52-1.85,2.61.25,5.16,1.19,7.29,2.72,2.02,1.47,3.6,3.52,4.49,5.86.51-2.49,1.47-4.97,3.14-6.92,1.16-1.35,2.59-2.47,4.21-3.21,2.42-1.1,5.16-1.51,7.79-1.09-.92.96-1.85,1.9-2.8,2.83-.61.09-1.21.2-1.81.34-1.26.32-2.57.33-3.84.59,1.29.18,2.67.14,3.85.8-.66.86-1.46,1.6-2.15,2.44-.24.26-.46.6-.83.67-1.07.28-2.19.39-3.24.77.94.05,1.89.07,2.84.04-1,1.23-1.99,2.49-2.74,3.89.68-.52,1.32-1.1,2.04-1.56,2.4-1.67,5.27-2.69,8.2-2.7,1.65-.02,3.31.28,4.84.89,2.22.86,4.16,2.34,5.75,4.09-1.42.03-2.84.19-4.26.22-.26.05-.43-.17-.61-.31-1.08-.94-2.21-1.87-3.53-2.47.22.26.46.51.69.76.64.7,1.23,1.45,1.8,2.21-1.36.16-2.72.37-4.08.53"/>
    </g>
    <g class="cls-4">
      <path class="cls-3" d="M8.37,30.5c-.15-1.12-.36-2.23-.43-3.36.6,1.32,1.17,2.66,1.61,4.04.09.34.4.55.64.78.88.8,1.67,1.69,2.52,2.53.3-1,.42-2.03.7-3.03.28,1.51-.1,3.09.39,4.57-1.01-1.03-2.21-1.89-3.6-2.34-1.74-.56-3.67-.69-5.43-.13-1.45.43-2.7,1.35-3.71,2.46.93.01,1.84.2,2.77.25,1.11-.38,2.07-1.14,3.19-1.5-.75.54-1.49,1.1-2.21,1.67,1.15.19,2.25.6,3.4.8.99-.4,2.07-.59,3.11-.79-.72.42-1.48.75-2.2,1.17,1.26.56,2.5,1.17,3.62,1.97-2.7-.29-5.61.22-7.72,2.01-2.14,1.73-3.31,4.51-3.17,7.24.87-.71,1.75-1.39,2.62-2.09.12-1.07.19-2.17.54-3.2-.01.91,0,1.82.12,2.73.79-.62,1.65-1.16,2.51-1.68.37-.2.48-.63.68-.96.38-.66.71-1.35,1.15-1.98-.13.74-.4,1.43-.53,2.17,1.75-.81,3.53-1.61,5.44-1.96-1.51,1.99-2.75,4.22-3.49,6.61-.65,1.94-.96,3.97-1.07,6-.07,1.28-.02,2.56.1,3.83-1.75-.1-3.51-.14-5.26,0-.22-.02-.55.12-.67-.15-.45-.7-.83-1.45-1.23-2.18C-.17,50.49-1.71,44.29-1.73,38.08c-.02-2.29.13-4.58.61-6.82.36-1.63.76-3.29,1.61-4.75,2.8.95,5.41,2.36,7.87,3.98M-15.01,23.75c.57-.02.96-.48,1.43-.75,1.15-.71,2.32-1.36,3.53-1.96-.96.87-1.95,1.71-2.83,2.67,2.48.01,4.97.18,7.4.69-3.11.81-6.21,2.19-8.34,4.69-2.14,2.43-3.22,5.65-3.37,8.86-.08,1.78.26,3.54.74,5.24.76-1.33,1.44-2.71,2.29-4,.15-.25.34-.48.42-.76-.23-1.36-.61-2.71-.6-4.1.4,1.03.78,2.08,1.29,3.07.77-1.08,1.52-2.18,2.39-3.2.25-.3.52-.62.53-1.03.14-1.49.47-2.95.84-4.39.05,1.21.08,2.41.23,3.61.78-.81,1.63-1.55,2.49-2.28,1.47-1.22,2.98-2.41,4.68-3.3-.52,1.15-.96,2.34-1.35,3.54-1.85,5.39-2.49,11.19-1.82,16.85.37,3.37,1.3,6.67,2.51,9.83.24.59.48,1.18.72,1.77-5.61.8-11.14,2.26-16.34,4.54-.76.35-1.55.65-2.23,1.15.76,1.73,1.58,3.43,2.57,5.04,1.35,2.24,2.8,4.43,4.54,6.39.36.37.72,1.06,1.34.8,16.1-3.42,32.19-6.83,48.28-10.27-1.21-.92-2.58-1.6-3.91-2.33-5.22-2.67-10.91-4.3-16.67-5.27-.63-.1-1.26-.14-1.88-.29-.14-.13-.16-.34-.22-.5-.96-3.35-1.15-6.95-.29-10.34.48-2.05,1.33-4.03,2.58-5.73,1.58,1.25,2.84,2.87,3.89,4.59.29-.69.56-1.39.85-2.08,0,.84-.11,1.68-.19,2.53-.04.29,0,.58.13.84.5,1.06,1.05,2.1,1.46,3.2.37-.71.75-1.42,1.18-2.1-.14.94-.45,1.84-.7,2.76-.1.24.02.47.1.69.43,1.06.87,2.11,1.21,3.2.87-2.42,1.34-5.07.76-7.61-.59-3-2.68-5.67-5.5-6.87,1.73-.04,3.45.21,5.14.56-.32-.76-.64-1.52-1.01-2.26.73.65,1.3,1.45,1.86,2.24.18.28.5.4.79.52.96.39,1.9.82,2.8,1.34-.17-.85-.33-1.7-.43-2.56.58.92.82,1.99,1.16,3.01,1,.55,1.96,1.16,2.92,1.78-.33-2.6-1.66-5.12-3.84-6.64-2.5-1.81-5.84-2.01-8.76-1.24,1.06-.7,2.1-1.44,3.26-1.97-.78-.27-1.56-.58-2.28-.99,1.01.1,1.98.39,2.97.62.26.08.52-.06.77-.14.92-.37,1.84-.72,2.77-1.05-.85-.48-1.75-.86-2.59-1.35.95.13,1.85.45,2.72.84.31.11.63.31.96.18,1-.26,1.99-.56,2.99-.81-1.94-1.24-4.27-1.96-6.59-1.72-3.03.26-5.94,2.02-7.41,4.7-.43-3.16-1.74-6.25-4.03-8.51-2.34-2.42-5.63-3.81-8.97-4.01,2.38-.72,4.8-1.34,7.28-1.56-.94-.88-1.91-1.7-2.91-2.51,1.32.48,2.58,1.16,3.72,1.99.28.2.57.46.94.43,1.61-.04,3.21.06,4.81.18-.76-1.11-1.61-2.17-2.35-3.29,1.25.99,2.45,2.05,3.5,3.26.16.22.45.22.69.27,1.45.17,2.86.57,4.28.86-1.39-2.37-3.39-4.42-5.84-5.7-2.5-1.33-5.44-1.86-8.23-1.34-2.35.42-4.54,1.46-6.53,2.75.96-1.49,2.07-2.87,3.27-4.18-1.03-.14-2.08-.13-3.11-.3,1.23-.3,2.48-.48,3.72-.68.51-.04.8-.5,1.16-.8.89-.81,1.8-1.6,2.74-2.35-1.51-.28-3.03-.54-4.56-.74,1.74-.16,3.49-.18,5.23-.08.41.06.74-.21,1.05-.42,1.16-.81,2.35-1.57,3.59-2.26-2.47-.9-5.23-1.04-7.74-.24-2.5.78-4.8,2.24-6.57,4.17-1.67,1.86-2.78,4.19-3.17,6.66-1.02-2.33-2.47-4.55-4.51-6.11-1.41-1.08-3.05-1.88-4.79-2.27-2.6-.57-5.36-.41-7.84.55,1.1.75,2.21,1.47,3.33,2.18.61-.04,1.23-.06,1.84-.04,1.3.05,2.58-.22,3.88-.22-1.23.45-2.58.69-3.6,1.58.83.7,1.76,1.27,2.61,1.94.29.2.57.49.96.49,1.11.06,2.22-.07,3.33.08-.91.24-1.84.46-2.77.63,1.23.99,2.46,2.02,3.49,3.23-.77-.37-1.52-.8-2.32-1.1-2.69-1.13-5.71-1.53-8.58-.93-1.62.32-3.18.96-4.55,1.87-1.99,1.3-3.58,3.15-4.77,5.2,1.4-.27,2.82-.41,4.21-.67.26,0,.39-.25.54-.43.87-1.14,1.77-2.29,2.94-3.15-.16.3-.35.59-.52.89-.48.82-.9,1.67-1.3,2.53,1.37-.13,2.74-.2,4.1-.33"/>
    </g>
  </g>
</svg>