<?xml version="1.0" encoding="UTF-8"?>
<svg id="Layer_2" data-name="Layer 2" xmlns="http://www.w3.org/2000/svg" xmlns:xlink="http://www.w3.org/1999/xlink" viewBox="0 0 432.76 34.68">
  <defs>
    <style>
      .cls-1, .cls-2 {
        fill: none;
      }

      .cls-2 {
        stroke: #001191;
        stroke-miterlimit: 4.94;
      }

      .cls-3 {
        fill: #001191;
      }

      .cls-4 {
        clip-path: url(#clippath);
      }
    </style>
    <clipPath id="clippath">
      <rect class="cls-1" width="432.76" height="34.68"/>
    </clipPath>
  </defs>
  <g id="Layer_1-2" data-name="Layer 1">
    <g class="cls-4">
      <path class="cls-3" d="M422.02,14.82h-1.97v14.3h1.97v-14.3ZM432.26,11.9c0-3.43-1.69-5.15-5.07-5.15h-7.38v1.7h7.18c2.21,0,3.32,1.15,3.32,3.45v17.21h1.95V11.9ZM415.01,12.31c0-2.19-.61-3.85-1.83-4.98-.85-.79-1.93-1.25-3.26-1.37v1.83c2.06.3,3.1,1.86,3.1,4.68v9.27h1.99v-9.41ZM406.6,6.76h-1.95v7.4c0,3.79-1.24,6.99-3.73,9.6-2.2,2.31-4.98,3.8-8.35,4.47v-6.64c2.15-.51,3.87-1.7,5.17-3.57,1.18-1.71,1.76-3.57,1.76-5.58v-5.68h-1.93v6.05c0,3.68-1.67,6.11-5,7.3V6.76h-1.97v13.6h-1.48v1.5h1.48v8.31c4.14-.33,7.73-1.78,10.77-4.37,3.49-2.99,5.23-6.83,5.23-11.51v-7.53ZM387.04,14.86h-1.8v-2.75c0-3.57-1.56-5.35-4.68-5.35h-4v1.7h3.8c1.94,0,2.91,1.22,2.91,3.65v2.75h-.82c-3.12,0-5.03,1.77-5.72,5.31l-1.72,8.94h1.97l1.72-8.94c.51-2.58,1.83-3.88,3.96-3.88h.72l.74,12.82h1.95l-.76-12.82h1.74v-1.44ZM371.45,12.31c0-2.19-.61-3.85-1.83-4.98-.85-.79-1.93-1.25-3.26-1.37v1.83c2.07.3,3.1,1.86,3.1,4.68v9.27h1.99v-9.41ZM344.4,14.82h-1.97v14.3h1.97v-14.3ZM354.63,11.9c0-3.43-1.69-5.15-5.07-5.15h-7.38v1.7h7.18c2.21,0,3.32,1.15,3.32,3.45v17.21h1.95V11.9ZM327.33,14.82h-1.97v14.3h1.97v-14.3ZM337.57,11.9c0-3.43-1.69-5.15-5.07-5.15h-7.38v1.7h7.18c2.21,0,3.32,1.15,3.32,3.45v17.21h1.95V11.9ZM313.55,27.88c-3.76,0-5.64-3.31-5.64-9.93,0-3.64.48-6.24,1.46-7.81.88-1.41,2.27-2.11,4.18-2.11s3.29.7,4.16,2.11c.98,1.56,1.48,4.16,1.48,7.81,0,6.62-1.88,9.93-5.64,9.93M313.55,6.32c-5.07,0-7.61,3.88-7.61,11.63s2.54,11.65,7.61,11.65,7.59-3.88,7.59-11.65-2.53-11.63-7.59-11.63M300.32,10.69c-2-2.62-4.96-3.94-8.9-3.94h-.74v1.7h.53c2.94,0,5.24.84,6.91,2.52,1.67,1.69,2.5,3.99,2.5,6.89,0,1.55-.21,2.91-.63,4.09-.42,1.18-1.03,2.18-1.83,2.98-.81.81-1.8,1.42-2.96,1.84-1.17.42-2.5.63-3.99.63h-.53v1.7h.74c3.94,0,6.9-1.33,8.9-4,1.52-2.02,2.28-4.44,2.28-7.24s-.76-5.14-2.28-7.18M275.2,27.41V8.46h6.42c2.21,0,3.32,1.15,3.32,3.45v15.51h-9.74ZM286.91,11.9c0-3.43-1.69-5.15-5.07-5.15h-6.64v-1.56h-1.97v1.56h-1.81v1.7h1.81v20.65h13.68V11.9ZM249.54,14.82h-1.97v14.3h1.97v-14.3ZM259.78,11.9c0-3.43-1.69-5.15-5.07-5.15h-7.38v1.7h7.18c2.21,0,3.32,1.15,3.32,3.45v17.21h1.95V11.9ZM232.01,10.57h-1.97v23.61h1.97V10.57ZM233.03,6.76h-4.02v1.7h4.02c5.82,0,8.74,2.54,8.74,7.63,0,2.39-.79,4.73-2.38,7.01-1.67,2.41-3.66,3.88-5.97,4.43v1.58c2.88-.52,5.34-2.12,7.36-4.8,1.97-2.58,2.95-5.32,2.95-8.22,0-6.22-3.57-9.33-10.71-9.33M224.66,12.31c0-2.19-.61-3.85-1.82-4.98-.85-.79-1.94-1.25-3.26-1.37v1.83c2.06.3,3.1,1.86,3.1,4.68v9.27h1.99v-9.41ZM217.53,27.41h-.1c-.56,0-1.1-.24-1.62-.72-.6-.57-.9-1.33-.9-2.28v-12.51c0-3.43-1.7-5.15-5.09-5.15h-5.27v1.7h5.07c2.21,0,3.32,1.15,3.32,3.45v12.37c0,1.52.49,2.56,1.48,3.14h-10.38v1.7h13.49v-1.7ZM200.28,12.31c0-2.19-.61-3.85-1.83-4.98-.85-.79-1.93-1.25-3.26-1.37v1.83c2.06.3,3.1,1.86,3.1,4.68v16.65h1.99V12.31ZM190.11,6.76c-.93,3.03-2.28,5.52-4.06,7.44l-6.01-7.44h-2.28l6.93,8.74c-.55.52-.92.83-1.13.94l.98,1.23c.64-.4,1.04-.68,1.19-.84l1.44,1.87c1.37,1.78,2.05,3.4,2.05,4.88,0,1.16-.43,2.08-1.3,2.75s-2.05,1-3.54,1h-5.62v1.78h5.39c2.26,0,4.02-.53,5.29-1.6,1.18-1.01,1.76-2.33,1.76-3.96,0-1.87-.76-3.77-2.28-5.7l-1.8-2.32c2.3-2.43,3.94-5.36,4.94-8.78h-1.97ZM174.64,12.31c0-2.19-.61-3.85-1.82-4.98-.85-.79-1.93-1.25-3.26-1.37v1.83c2.07.3,3.1,1.86,3.1,4.68v9.27h1.99v-9.41ZM157.83,11.9c0-3.43-1.7-5.15-5.09-5.15h-6.21v-1.56h-1.93v23.91h1.93V8.46h6.01c2.21,0,3.32,1.15,3.32,3.45v17.21h1.97V11.9ZM140.82,27.41h-.1c-.56,0-1.1-.24-1.62-.72-.6-.57-.9-1.33-.9-2.28v-12.51c0-3.43-1.7-5.15-5.09-5.15h-5.27v1.7h5.07c2.22,0,3.32,1.15,3.32,3.45v12.37c0,1.52.49,2.56,1.48,3.14h-10.38v1.7h13.5v-1.7ZM123.35,11.9c0-3.43-1.69-5.15-5.07-5.15h-5.91v1.7h5.68c2.21,0,3.32,1.15,3.32,3.45v17.21h1.97V11.9ZM109.24,11.9c0-3.43-1.7-5.15-5.09-5.15h-4.76v-1.62h-1.97v1.62h-2.56v1.7h2.56v13.62c0,4.88-1.64,7.45-4.92,7.71v1.48c2.04,0,3.69-.82,4.96-2.46,1.29-1.65,1.93-3.82,1.93-6.5v-13.84h4.55c2.21,0,3.32,1.15,3.32,3.45v17.21h1.97V11.9ZM80.63,10.24c-2.04-2.32-4.96-3.49-8.76-3.49h-.23v-1.56h-1.97v15.12c0,1.12.56,1.68,1.68,1.68h5.99v-1.68h-5.7v-11.86h.23c2.94,0,5.24.84,6.91,2.52,1.67,1.69,2.5,3.99,2.5,6.89,0,1.55-.21,2.91-.62,4.09-.42,1.18-1.03,2.18-1.83,2.98-.8.81-1.78,1.42-2.95,1.84-1.17.42-2.51.63-4.01.63h-2.19v1.7h2.42c3.92,0,6.88-1.33,8.88-4,1.52-2.02,2.28-4.44,2.28-7.24,0-3.06-.88-5.61-2.62-7.63M65.04,8.44c0-1.12-.49-1.68-1.48-1.68h-8.63V.5h-1.97v6.66c0,.86.31,1.29.94,1.29h9.19v1.44c0,1.26-.22,2.65-.68,4.16-.45,1.52-.98,2.66-1.58,3.43-2.75,3.57-4.12,6.82-4.12,9.74v1.89h1.78v-1.68c0-2.58,1.09-5.31,3.26-8.18,2.19-2.86,3.28-5.99,3.28-9.39v-1.41ZM49.97,27.53c-.59-1.03-1.12-1.9-1.59-2.64-.47-.73-.9-1.31-1.28-1.75-1.07-1.23-2.21-2.01-3.42-2.34,2.02-1.31,3.62-3.71,4.78-7.2l2.3-6.85h-1.97l-2.46,7.4c-.88,2.64-1.78,4.39-2.71,5.25-.81.74-2.04,1.11-3.69,1.11V5.07h-1.97v15.44h-1.6v1.46h1.6v7.14h1.97v-7.14h.41c1.54,0,2.88.38,4.02,1.15,1.23.85,2.45,2.32,3.65,4.41l.9,1.58h1.97l-.9-1.58ZM30.36,10.24c-2.04-2.32-4.96-3.49-8.76-3.49h-.23v-1.56h-1.97v15.12c0,1.12.56,1.68,1.68,1.68h5.99v-1.68h-5.7v-11.86h.23c2.94,0,5.24.84,6.91,2.52,1.67,1.69,2.5,3.99,2.5,6.89,0,1.55-.21,2.91-.62,4.09-.42,1.18-1.03,2.18-1.83,2.98-.8.81-1.78,1.42-2.95,1.84-1.17.42-2.51.63-4.01.63h-2.19v1.7h2.42c3.92,0,6.88-1.33,8.88-4,1.52-2.02,2.28-4.44,2.28-7.24,0-3.06-.88-5.61-2.62-7.63M14.18,12.31c0-2.19-.61-3.85-1.83-4.98-.85-.79-1.93-1.25-3.26-1.37v1.83c2.06.3,3.1,1.86,3.1,4.68v16.65h1.99V12.31ZM5.59,12.31c0-2.19-.61-3.85-1.83-4.98-.85-.79-1.93-1.25-3.26-1.37v1.83c2.06.3,3.1,1.86,3.1,4.68v21.72h1.99V12.31Z"/>
      <path class="cls-2" d="M422.02,14.82h-1.97v14.3h1.97v-14.3ZM432.26,11.9c0-3.43-1.69-5.15-5.07-5.15h-7.38v1.7h7.18c2.21,0,3.32,1.15,3.32,3.45v17.21h1.95V11.9ZM415.01,12.31c0-2.19-.61-3.85-1.83-4.98-.85-.79-1.93-1.25-3.26-1.37v1.83c2.06.3,3.1,1.86,3.1,4.68v9.27h1.99v-9.41ZM406.6,6.76h-1.95v7.4c0,3.79-1.24,6.99-3.73,9.6-2.2,2.31-4.98,3.8-8.35,4.47v-6.64c2.15-.51,3.87-1.7,5.17-3.57,1.18-1.71,1.76-3.57,1.76-5.58v-5.68h-1.93v6.05c0,3.68-1.67,6.11-5,7.3V6.76h-1.97v13.6h-1.48v1.5h1.48v8.31c4.14-.33,7.73-1.78,10.77-4.37,3.49-2.99,5.23-6.83,5.23-11.51v-7.53ZM387.04,14.86h-1.8v-2.75c0-3.57-1.56-5.35-4.68-5.35h-4v1.7h3.8c1.94,0,2.91,1.22,2.91,3.65v2.75h-.82c-3.12,0-5.03,1.77-5.72,5.31l-1.72,8.94h1.97l1.72-8.94c.51-2.58,1.83-3.88,3.96-3.88h.72l.74,12.82h1.95l-.76-12.82h1.74v-1.44ZM371.45,12.31c0-2.19-.61-3.85-1.83-4.98-.85-.79-1.93-1.25-3.26-1.37v1.83c2.07.3,3.1,1.86,3.1,4.68v9.27h1.99v-9.41ZM344.4,14.82h-1.97v14.3h1.97v-14.3ZM354.63,11.9c0-3.43-1.69-5.15-5.07-5.15h-7.38v1.7h7.18c2.21,0,3.32,1.15,3.32,3.45v17.21h1.95V11.9ZM327.33,14.82h-1.97v14.3h1.97v-14.3ZM337.57,11.9c0-3.43-1.69-5.15-5.07-5.15h-7.38v1.7h7.18c2.21,0,3.32,1.15,3.32,3.45v17.21h1.95V11.9ZM313.55,27.88c-3.76,0-5.64-3.31-5.64-9.93,0-3.64.48-6.24,1.46-7.81.88-1.41,2.27-2.11,4.18-2.11s3.29.7,4.16,2.11c.98,1.56,1.48,4.16,1.48,7.81,0,6.62-1.88,9.93-5.64,9.93ZM313.55,6.32c-5.07,0-7.61,3.88-7.61,11.63s2.54,11.65,7.61,11.65,7.59-3.88,7.59-11.65-2.53-11.63-7.59-11.63ZM300.32,10.69c-2-2.62-4.96-3.94-8.9-3.94h-.74v1.7h.53c2.94,0,5.24.84,6.91,2.52,1.67,1.69,2.5,3.99,2.5,6.89,0,1.55-.21,2.91-.63,4.09-.42,1.18-1.03,2.18-1.83,2.98-.81.81-1.8,1.42-2.96,1.84-1.17.42-2.5.63-3.99.63h-.53v1.7h.74c3.94,0,6.9-1.33,8.9-4,1.52-2.02,2.28-4.44,2.28-7.24s-.76-5.14-2.28-7.18ZM275.2,27.41V8.46h6.42c2.21,0,3.32,1.15,3.32,3.45v15.51h-9.74ZM286.91,11.9c0-3.43-1.69-5.15-5.07-5.15h-6.64v-1.56h-1.97v1.56h-1.81v1.7h1.81v20.65h13.68V11.9ZM249.54,14.82h-1.97v14.3h1.97v-14.3ZM259.78,11.9c0-3.43-1.69-5.15-5.07-5.15h-7.38v1.7h7.18c2.21,0,3.32,1.15,3.32,3.45v17.21h1.95V11.9ZM232.01,10.57h-1.97v23.61h1.97V10.57ZM233.03,6.76h-4.02v1.7h4.02c5.82,0,8.74,2.54,8.74,7.63,0,2.39-.79,4.73-2.38,7.01-1.67,2.41-3.66,3.88-5.97,4.43v1.58c2.88-.52,5.34-2.12,7.36-4.8,1.97-2.58,2.95-5.32,2.95-8.22,0-6.22-3.57-9.33-10.71-9.33ZM224.66,12.31c0-2.19-.61-3.85-1.82-4.98-.85-.79-1.94-1.25-3.26-1.37v1.83c2.06.3,3.1,1.86,3.1,4.68v9.27h1.99v-9.41ZM217.53,27.41h-.1c-.56,0-1.1-.24-1.62-.72-.6-.57-.9-1.33-.9-2.28v-12.51c0-3.43-1.7-5.15-5.09-5.15h-5.27v1.7h5.07c2.21,0,3.32,1.15,3.32,3.45v12.37c0,1.52.49,2.56,1.48,3.14h-10.38v1.7h13.49v-1.7ZM200.28,12.31c0-2.19-.61-3.85-1.83-4.98-.85-.79-1.93-1.25-3.26-1.37v1.83c2.06.3,3.1,1.86,3.1,4.68v16.65h1.99V12.31ZM190.11,6.76c-.93,3.03-2.28,5.52-4.06,7.44l-6.01-7.44h-2.28l6.93,8.74c-.55.52-.92.83-1.13.94l.98,1.23c.64-.4,1.04-.68,1.19-.84l1.44,1.87c1.37,1.78,2.05,3.4,2.05,4.88,0,1.16-.43,2.08-1.3,2.75s-2.05,1-3.54,1h-5.62v1.78h5.39c2.26,0,4.02-.53,5.29-1.6,1.18-1.01,1.76-2.33,1.76-3.96,0-1.87-.76-3.77-2.28-5.7l-1.8-2.32c2.3-2.43,3.94-5.36,4.94-8.78h-1.97ZM174.64,12.31c0-2.19-.61-3.85-1.82-4.98-.85-.79-1.93-1.25-3.26-1.37v1.83c2.07.3,3.1,1.86,3.1,4.68v9.27h1.99v-9.41ZM157.83,11.9c0-3.43-1.7-5.15-5.09-5.15h-6.21v-1.56h-1.93v23.91h1.93V8.46h6.01c2.21,0,3.32,1.15,3.32,3.45v17.21h1.97V11.9ZM140.82,27.41h-.1c-.56,0-1.1-.24-1.62-.72-.6-.57-.9-1.33-.9-2.28v-12.51c0-3.43-1.7-5.15-5.09-5.15h-5.27v1.7h5.07c2.22,0,3.32,1.15,3.32,3.45v12.37c0,1.52.49,2.56,1.48,3.14h-10.38v1.7h13.5v-1.7ZM123.35,11.9c0-3.43-1.69-5.15-5.07-5.15h-5.91v1.7h5.68c2.21,0,3.32,1.15,3.32,3.45v17.21h1.97V11.9ZM109.24,11.9c0-3.43-1.7-5.15-5.09-5.15h-4.76v-1.62h-1.97v1.62h-2.56v1.7h2.56v13.62c0,4.88-1.64,7.45-4.92,7.71v1.48c2.04,0,3.69-.82,4.96-2.46,1.29-1.65,1.93-3.82,1.93-6.5v-13.84h4.55c2.21,0,3.32,1.15,3.32,3.45v17.21h1.97V11.9ZM80.63,10.24c-2.04-2.32-4.96-3.49-8.76-3.49h-.23v-1.56h-1.97v15.12c0,1.12.56,1.68,1.68,1.68h5.99v-1.68h-5.7v-11.86h.23c2.94,0,5.24.84,6.91,2.52,1.67,1.69,2.5,3.99,2.5,6.89,0,1.55-.21,2.91-.62,4.09-.42,1.18-1.03,2.18-1.83,2.98-.8.81-1.78,1.42-2.95,1.84-1.17.42-2.51.63-4.01.63h-2.19v1.7h2.42c3.92,0,6.88-1.33,8.88-4,1.52-2.02,2.28-4.44,2.28-7.24,0-3.06-.88-5.61-2.62-7.63ZM65.04,8.44c0-1.12-.49-1.68-1.48-1.68h-8.63V.5h-1.97v6.66c0,.86.31,1.29.94,1.29h9.19v1.44c0,1.26-.22,2.65-.68,4.16-.45,1.52-.98,2.66-1.58,3.43-2.75,3.57-4.12,6.82-4.12,9.74v1.89h1.78v-1.68c0-2.58,1.09-5.31,3.26-8.18,2.19-2.86,3.28-5.99,3.28-9.39v-1.41ZM49.97,27.53c-.59-1.03-1.12-1.9-1.59-2.64-.47-.73-.9-1.31-1.28-1.75-1.07-1.23-2.21-2.01-3.42-2.34,2.02-1.31,3.62-3.71,4.78-7.2l2.3-6.85h-1.97l-2.46,7.4c-.88,2.64-1.78,4.39-2.71,5.25-.81.74-2.04,1.11-3.69,1.11V5.07h-1.97v15.44h-1.6v1.46h1.6v7.14h1.97v-7.14h.41c1.54,0,2.88.38,4.02,1.15,1.23.85,2.45,2.32,3.65,4.41l.9,1.58h1.97l-.9-1.58ZM30.36,10.24c-2.04-2.32-4.96-3.49-8.76-3.49h-.23v-1.56h-1.97v15.12c0,1.12.56,1.68,1.68,1.68h5.99v-1.68h-5.7v-11.86h.23c2.94,0,5.24.84,6.91,2.52,1.67,1.69,2.5,3.99,2.5,6.89,0,1.55-.21,2.91-.62,4.09-.42,1.18-1.03,2.18-1.83,2.98-.8.81-1.78,1.42-2.95,1.84-1.17.42-2.51.63-4.01.63h-2.19v1.7h2.42c3.92,0,6.88-1.33,8.88-4,1.52-2.02,2.28-4.44,2.28-7.24,0-3.06-.88-5.61-2.62-7.63ZM14.18,12.31c0-2.19-.61-3.85-1.83-4.98-.85-.79-1.93-1.25-3.26-1.37v1.83c2.06.3,3.1,1.86,3.1,4.68v16.65h1.99V12.31ZM5.59,12.31c0-2.19-.61-3.85-1.83-4.98-.85-.79-1.93-1.25-3.26-1.37v1.83c2.06.3,3.1,1.86,3.1,4.68v21.72h1.99V12.31Z"/>
    </g>
  </g>
</svg>