<?xml version="1.0" encoding="UTF-8"?>
<svg id="Layer_2" data-name="Layer 2" xmlns="http://www.w3.org/2000/svg" xmlns:xlink="http://www.w3.org/1999/xlink" viewBox="0 0 315.81 112.31">
  <defs>
    <style>
      .cls-1, .cls-2, .cls-3 {
        fill: none;
      }

      .cls-4 {
        fill: #e99a37;
      }

      .cls-2 {
        stroke: #e99a37;
      }

      .cls-2, .cls-3 {
        stroke-width: 3px;
      }

      .cls-3 {
        stroke: #fff;
      }

      .cls-5 {
        fill: #fff;
      }

      .cls-6 {
        clip-path: url(#clippath);
      }
    </style>
    <clipPath id="clippath">
      <rect class="cls-1" width="315.81" height="112.31"/>
    </clipPath>
  </defs>
  <g id="Layer_1-2" data-name="Layer 1">
    <g class="cls-6">
      <path class="cls-4" d="M298.72,81.31h-3v21.78h3v-21.78ZM314.31,76.88c0-5.23-2.57-7.84-7.72-7.84h-11.25v2.59h10.94c3.38,0,5.06,1.75,5.06,5.25v26.22h2.97v-26.22ZM286.78,75.03c-3.04-4-7.56-6-13.56-6h-1.12v2.59h.81c4.48,0,7.99,1.28,10.53,3.84,2.54,2.58,3.81,6.08,3.81,10.5,0,2.35-.32,4.43-.95,6.23-.64,1.8-1.57,3.32-2.8,4.55s-2.73,2.16-4.52,2.8c-1.78.64-3.81.95-6.08.95h-.81v2.59h1.12c6,0,10.52-2.03,13.56-6.09,2.31-3.08,3.47-6.76,3.47-11.03s-1.16-7.83-3.47-10.94M266.06,77.5c0-3.33-.93-5.86-2.78-7.59-1.29-1.21-2.95-1.91-4.97-2.09v2.78c3.14.46,4.72,2.83,4.72,7.12v14.12h3.03v-14.34ZM239.81,76.88c0-5.23-2.57-7.84-7.72-7.84h-9v2.59h8.66c3.38,0,5.06,1.75,5.06,5.25v26.22h3v-26.22ZM218.28,76.88c0-5.23-2.58-7.84-7.75-7.84h-9.47v-2.38h-2.94v36.44h2.94v-31.47h9.16c3.38,0,5.06,1.75,5.06,5.25v26.22h3v-26.22ZM190.16,77.5c0-3.33-.93-5.86-2.78-7.59-1.29-1.21-2.95-1.91-4.97-2.09v2.78c3.15.46,4.72,2.83,4.72,7.12v25.37h3.03v-25.59ZM161.03,74.84h-3v35.97h3v-35.97ZM162.59,69.03h-6.12v2.59h6.12c8.88,0,13.31,3.88,13.31,11.62,0,3.65-1.21,7.21-3.62,10.69-2.54,3.67-5.57,5.92-9.09,6.75v2.41c4.4-.79,8.14-3.23,11.22-7.31,3-3.94,4.5-8.11,4.5-12.53,0-9.48-5.44-14.22-16.31-14.22M137.31,69.03h-2.97v11.28c0,5.77-1.9,10.65-5.69,14.62-3.35,3.52-7.59,5.79-12.72,6.81v-10.12c3.27-.77,5.89-2.58,7.88-5.44,1.79-2.6,2.69-5.44,2.69-8.5v-8.66h-2.94v9.22c0,5.6-2.54,9.31-7.62,11.12v-20.34h-3v20.72h-2.25v2.28h2.25v12.66c6.31-.5,11.78-2.72,16.41-6.66,5.31-4.56,7.97-10.41,7.97-17.53v-11.47ZM105.16,100.69c-.9-1.56-1.7-2.9-2.42-4.01-.72-1.11-1.37-2.01-1.95-2.67-1.62-1.88-3.37-3.06-5.22-3.56,3.08-2,5.51-5.66,7.28-10.97l3.5-10.44h-3l-3.75,11.28c-1.33,4.02-2.71,6.69-4.12,8-1.23,1.12-3.1,1.69-5.62,1.69v-23.53h-3v23.53h-2.44v2.22h2.44v10.88h3v-10.88h.62c2.35,0,4.4.58,6.12,1.75,1.88,1.29,3.73,3.53,5.56,6.72l1.38,2.41h3l-1.38-2.41ZM75.28,74.34c-3.1-3.54-7.55-5.31-13.34-5.31h-.34v-2.38h-3v23.03c0,1.71.85,2.56,2.56,2.56h9.12v-2.56h-8.69v-18.06h.34c4.48,0,7.99,1.28,10.53,3.84,2.54,2.58,3.81,6.08,3.81,10.5,0,2.35-.32,4.43-.95,6.23-.64,1.8-1.56,3.32-2.78,4.55-1.22,1.23-2.72,2.16-4.5,2.8-1.78.64-3.82.95-6.11.95h-3.34v2.59h3.69c5.98,0,10.49-2.03,13.53-6.09,2.31-3.08,3.47-6.76,3.47-11.03,0-4.67-1.33-8.54-4-11.62M50.91,69.03h-2.97v11.28c0,5.77-1.9,10.65-5.69,14.62-3.35,3.52-7.59,5.79-12.72,6.81v-10.12c3.27-.77,5.9-2.58,7.87-5.44,1.79-2.6,2.69-5.44,2.69-8.5v-8.66h-2.94v9.22c0,5.6-2.54,9.31-7.62,11.12v-20.34h-3v20.72h-2.25v2.28h2.25v12.66c6.31-.5,11.78-2.72,16.41-6.66,5.31-4.56,7.97-10.41,7.97-17.53v-11.47ZM18.22,76.88c0-5.23-2.57-7.84-7.72-7.84H1.5v2.59h8.66c3.38,0,5.06,1.75,5.06,5.25v26.22h3v-26.22Z"/>
      <path class="cls-2" d="M298.72,81.31h-3v21.78h3v-21.78ZM314.31,76.88c0-5.23-2.57-7.84-7.72-7.84h-11.25v2.59h10.94c3.38,0,5.06,1.75,5.06,5.25v26.22h2.97v-26.22ZM286.78,75.03c-3.04-4-7.56-6-13.56-6h-1.12v2.59h.81c4.48,0,7.99,1.28,10.53,3.84,2.54,2.58,3.81,6.08,3.81,10.5,0,2.35-.32,4.43-.95,6.23-.64,1.8-1.57,3.32-2.8,4.55s-2.73,2.16-4.52,2.8c-1.78.64-3.81.95-6.08.95h-.81v2.59h1.12c6,0,10.52-2.03,13.56-6.09,2.31-3.08,3.47-6.76,3.47-11.03s-1.16-7.83-3.47-10.94ZM266.06,77.5c0-3.33-.93-5.86-2.78-7.59-1.29-1.21-2.95-1.91-4.97-2.09v2.78c3.14.46,4.72,2.83,4.72,7.12v14.12h3.03v-14.34ZM239.81,76.88c0-5.23-2.57-7.84-7.72-7.84h-9v2.59h8.66c3.38,0,5.06,1.75,5.06,5.25v26.22h3v-26.22ZM218.28,76.88c0-5.23-2.58-7.84-7.75-7.84h-9.47v-2.38h-2.94v36.44h2.94v-31.47h9.16c3.38,0,5.06,1.75,5.06,5.25v26.22h3v-26.22ZM190.16,77.5c0-3.33-.93-5.86-2.78-7.59-1.29-1.21-2.95-1.91-4.97-2.09v2.78c3.15.46,4.72,2.83,4.72,7.12v25.37h3.03v-25.59ZM161.03,74.84h-3v35.97h3v-35.97ZM162.59,69.03h-6.12v2.59h6.12c8.88,0,13.31,3.88,13.31,11.62,0,3.65-1.21,7.21-3.62,10.69-2.54,3.67-5.57,5.92-9.09,6.75v2.41c4.4-.79,8.14-3.23,11.22-7.31,3-3.94,4.5-8.11,4.5-12.53,0-9.48-5.44-14.22-16.31-14.22ZM137.31,69.03h-2.97v11.28c0,5.77-1.9,10.65-5.69,14.62-3.35,3.52-7.59,5.79-12.72,6.81v-10.12c3.27-.77,5.89-2.58,7.88-5.44,1.79-2.6,2.69-5.44,2.69-8.5v-8.66h-2.94v9.22c0,5.6-2.54,9.31-7.62,11.12v-20.34h-3v20.72h-2.25v2.28h2.25v12.66c6.31-.5,11.78-2.72,16.41-6.66,5.31-4.56,7.97-10.41,7.97-17.53v-11.47ZM105.16,100.69c-.9-1.56-1.7-2.9-2.42-4.01-.72-1.11-1.37-2.01-1.95-2.67-1.62-1.88-3.37-3.06-5.22-3.56,3.08-2,5.51-5.66,7.28-10.97l3.5-10.44h-3l-3.75,11.28c-1.33,4.02-2.71,6.69-4.12,8-1.23,1.12-3.1,1.69-5.62,1.69v-23.53h-3v23.53h-2.44v2.22h2.44v10.88h3v-10.88h.62c2.35,0,4.4.58,6.12,1.75,1.88,1.29,3.73,3.53,5.56,6.72l1.38,2.41h3l-1.38-2.41ZM75.28,74.34c-3.1-3.54-7.55-5.31-13.34-5.31h-.34v-2.38h-3v23.03c0,1.71.85,2.56,2.56,2.56h9.12v-2.56h-8.69v-18.06h.34c4.48,0,7.99,1.28,10.53,3.84,2.54,2.58,3.81,6.08,3.81,10.5,0,2.35-.32,4.43-.95,6.23-.64,1.8-1.56,3.32-2.78,4.55-1.22,1.23-2.72,2.16-4.5,2.8-1.78.64-3.82.95-6.11.95h-3.34v2.59h3.69c5.98,0,10.49-2.03,13.53-6.09,2.31-3.08,3.47-6.76,3.47-11.03,0-4.67-1.33-8.54-4-11.62ZM50.91,69.03h-2.97v11.28c0,5.77-1.9,10.65-5.69,14.62-3.35,3.52-7.59,5.79-12.72,6.81v-10.12c3.27-.77,5.9-2.58,7.87-5.44,1.79-2.6,2.69-5.44,2.69-8.5v-8.66h-2.94v9.22c0,5.6-2.54,9.31-7.62,11.12v-20.34h-3v20.72h-2.25v2.28h2.25v12.66c6.31-.5,11.78-2.72,16.41-6.66,5.31-4.56,7.97-10.41,7.97-17.53v-11.47ZM18.22,76.88c0-5.23-2.57-7.84-7.72-7.84H1.5v2.59h8.66c3.38,0,5.06,1.75,5.06,5.25v26.22h3v-26.22Z"/>
      <path class="cls-5" d="M281.44,13.59c0-1.71-.75-2.56-2.25-2.56h-13.16V1.5h-3v10.16c0,1.31.48,1.97,1.44,1.97h14v2.19c0,1.92-.34,4.03-1.03,6.34-.69,2.31-1.49,4.05-2.41,5.22-4.19,5.44-6.28,10.39-6.28,14.84v2.88h2.72v-2.56c0-3.94,1.66-8.09,4.97-12.47,3.33-4.36,5-9.12,5-14.31v-2.16ZM258.28,19.5c0-3.33-.93-5.86-2.78-7.59-1.29-1.21-2.95-1.91-4.97-2.09v2.78c3.15.46,4.72,2.83,4.72,7.12v25.38h3.03v-25.59ZM229.16,16.84h-3v35.97h3V16.84ZM230.72,11.03h-6.12v2.59h6.12c8.88,0,13.31,3.88,13.31,11.62,0,3.65-1.21,7.21-3.62,10.69-2.54,3.67-5.57,5.92-9.09,6.75v2.41c4.4-.79,8.14-3.23,11.22-7.31,3-3.94,4.5-8.11,4.5-12.53,0-9.48-5.44-14.22-16.31-14.22M218.25,18.88c0-5.23-2.58-7.84-7.75-7.84h-9.47v-2.38h-2.94v36.44h2.94V13.63h9.16c3.38,0,5.06,1.75,5.06,5.25v26.22h3v-26.22ZM190.12,19.5c0-3.33-.93-5.86-2.78-7.59-1.29-1.21-2.95-1.91-4.97-2.09v2.78c3.15.46,4.72,2.83,4.72,7.12v14.12h3.03v-14.34ZM159.47,42.5V13.63h9.78c3.38,0,5.06,1.75,5.06,5.25v23.62h-14.84ZM177.31,18.88c0-5.23-2.57-7.84-7.72-7.84h-10.12v-2.38h-3v2.38h-2.75v2.59h2.75v31.47h20.84v-26.22ZM135.87,42.69c-.9-1.56-1.7-2.9-2.42-4.01-.72-1.11-1.37-2-1.95-2.67-1.62-1.88-3.36-3.06-5.22-3.56,3.08-2,5.51-5.66,7.28-10.97l3.5-10.44h-3l-3.75,11.28c-1.33,4.02-2.71,6.69-4.12,8-1.23,1.12-3.11,1.69-5.62,1.69V8.47h-3v23.53h-2.44v2.22h2.44v10.88h3v-10.88h.62c2.35,0,4.39.58,6.12,1.75,1.88,1.29,3.73,3.53,5.56,6.72l1.38,2.41h3l-1.38-2.41ZM108.75,18.88c0-5.23-2.58-7.84-7.75-7.84h-7.25v-2.47h-3v2.47h-3.91v2.59h3.91v20.75c0,7.44-2.5,11.35-7.5,11.75v2.25c3.1,0,5.62-1.25,7.56-3.75,1.96-2.52,2.94-5.82,2.94-9.91V13.63h6.94c3.38,0,5.06,1.75,5.06,5.25v26.22h3v-26.22ZM79.16,17.03c-3.04-4-7.56-6-13.56-6h-1.12v2.59h.81c4.48,0,7.99,1.28,10.53,3.84,2.54,2.58,3.81,6.08,3.81,10.5,0,2.35-.32,4.43-.95,6.23-.64,1.8-1.57,3.32-2.8,4.55-1.23,1.23-2.73,2.16-4.51,2.8-1.78.64-3.81.95-6.08.95h-.81v2.59h1.12c6,0,10.52-2.03,13.56-6.09,2.31-3.08,3.47-6.76,3.47-11.03s-1.16-7.83-3.47-10.94M40.87,42.5V13.63h9.78c3.38,0,5.06,1.75,5.06,5.25v23.62h-14.84ZM58.72,18.88c0-5.23-2.57-7.84-7.72-7.84h-10.12v-2.38h-3v2.38h-2.75v2.59h2.75v31.47h20.84v-26.22Z"/>
      <path class="cls-3" d="M281.44,13.59c0-1.71-.75-2.56-2.25-2.56h-13.16V1.5h-3v10.16c0,1.31.48,1.97,1.44,1.97h14v2.19c0,1.92-.34,4.03-1.03,6.34-.69,2.31-1.49,4.05-2.41,5.22-4.19,5.44-6.28,10.39-6.28,14.84v2.88h2.72v-2.56c0-3.94,1.66-8.09,4.97-12.47,3.33-4.36,5-9.12,5-14.31v-2.16ZM258.28,19.5c0-3.33-.93-5.86-2.78-7.59-1.29-1.21-2.95-1.91-4.97-2.09v2.78c3.15.46,4.72,2.83,4.72,7.12v25.38h3.03v-25.59ZM229.16,16.84h-3v35.97h3V16.84ZM230.72,11.03h-6.12v2.59h6.12c8.88,0,13.31,3.88,13.31,11.62,0,3.65-1.21,7.21-3.62,10.69-2.54,3.67-5.57,5.92-9.09,6.75v2.41c4.4-.79,8.14-3.23,11.22-7.31,3-3.94,4.5-8.11,4.5-12.53,0-9.48-5.44-14.22-16.31-14.22ZM218.25,18.88c0-5.23-2.58-7.84-7.75-7.84h-9.47v-2.38h-2.94v36.44h2.94V13.63h9.16c3.38,0,5.06,1.75,5.06,5.25v26.22h3v-26.22ZM190.12,19.5c0-3.33-.93-5.86-2.78-7.59-1.29-1.21-2.95-1.91-4.97-2.09v2.78c3.15.46,4.72,2.83,4.72,7.12v14.12h3.03v-14.34ZM159.47,42.5V13.63h9.78c3.38,0,5.06,1.75,5.06,5.25v23.62h-14.84ZM177.31,18.88c0-5.23-2.57-7.84-7.72-7.84h-10.12v-2.38h-3v2.38h-2.75v2.59h2.75v31.47h20.84v-26.22ZM135.87,42.69c-.9-1.56-1.7-2.9-2.42-4.01-.72-1.11-1.37-2-1.95-2.67-1.62-1.88-3.36-3.06-5.22-3.56,3.08-2,5.51-5.66,7.28-10.97l3.5-10.44h-3l-3.75,11.28c-1.33,4.02-2.71,6.69-4.12,8-1.23,1.12-3.11,1.69-5.62,1.69V8.47h-3v23.53h-2.44v2.22h2.44v10.88h3v-10.88h.62c2.35,0,4.39.58,6.12,1.75,1.88,1.29,3.73,3.53,5.56,6.72l1.38,2.41h3l-1.38-2.41ZM108.75,18.88c0-5.23-2.58-7.84-7.75-7.84h-7.25v-2.47h-3v2.47h-3.91v2.59h3.91v20.75c0,7.44-2.5,11.35-7.5,11.75v2.25c3.1,0,5.62-1.25,7.56-3.75,1.96-2.52,2.94-5.82,2.94-9.91V13.63h6.94c3.38,0,5.06,1.75,5.06,5.25v26.22h3v-26.22ZM79.16,17.03c-3.04-4-7.56-6-13.56-6h-1.12v2.59h.81c4.48,0,7.99,1.28,10.53,3.84,2.54,2.58,3.81,6.08,3.81,10.5,0,2.35-.32,4.43-.95,6.23-.64,1.8-1.57,3.32-2.8,4.55-1.23,1.23-2.73,2.16-4.51,2.8-1.78.64-3.81.95-6.08.95h-.81v2.59h1.12c6,0,10.52-2.03,13.56-6.09,2.31-3.08,3.47-6.76,3.47-11.03s-1.16-7.83-3.47-10.94ZM40.87,42.5V13.63h9.78c3.38,0,5.06,1.75,5.06,5.25v23.62h-14.84ZM58.72,18.88c0-5.23-2.57-7.84-7.72-7.84h-10.12v-2.38h-3v2.38h-2.75v2.59h2.75v31.47h20.84v-26.22Z"/>
    </g>
  </g>
</svg>